<?xml version="1.0" standalone="no"?>
<!DOCTYPE svg PUBLIC "-//W3C//DTD SVG 20010904//EN"
 "http://www.w3.org/TR/2001/REC-SVG-20010904/DTD/svg10.dtd">
<svg version="1.0" xmlns="http://www.w3.org/2000/svg"
 width="717.000000pt" height="331.000000pt" viewBox="0 0 717.000000 331.000000"
 preserveAspectRatio="xMidYMid meet">

<g transform="translate(0.000000,331.000000) scale(0.100000,-0.100000)"
fill="#000000" stroke="none">
<path d="M1719 1976 c-59 -45 -140 -107 -182 -139 l-75 -58 -84 9 c-46 5 -84
8 -86 7 -13 -11 -22 -177 -22 -432 l0 -303 565 0 565 0 -2 308 -3 307 -31 3
c-22 2 -94 51 -245 164 -118 88 -232 173 -254 188 l-40 27 -106 -81z m281
-271 c382 -43 380 -43 380 -64 0 -10 -81 -70 -210 -156 -115 -77 -209 -142
-209 -145 0 -3 63 -43 139 -88 77 -46 140 -86 140 -89 0 -2 -55 25 -122 62
-68 36 -160 85 -206 108 l-82 42 -48 -25 c-26 -13 -116 -61 -200 -106 -83 -45
-150 -79 -147 -74 3 4 63 43 135 86 71 44 130 81 130 84 0 3 -75 56 -167 118
-244 164 -248 167 -248 177 1 6 4 42 9 80 l8 71 191 -23 c106 -12 334 -38 507
-58z"/>
<path d="M1540 1651 c0 -12 19 -15 328 -52 237 -28 287 -31 270 -14 -5 5 -544
75 -580 75 -10 0 -18 -4 -18 -9z"/>
<path d="M1535 1590 c-9 -14 -1 -16 200 -40 99 -11 190 -23 203 -25 14 -4 22
-1 22 8 0 10 -49 19 -192 36 -106 12 -200 24 -210 27 -9 3 -19 0 -23 -6z"/>
<path d="M1526 1522 c-3 -5 81 -19 187 -31 106 -13 202 -25 215 -28 15 -3 22
-1 22 9 0 11 -43 19 -192 36 -214 25 -225 26 -232 14z"/>
<path d="M2657 1773 c-4 -3 -7 -102 -7 -220 0 -163 3 -213 13 -214 19 -2 44
-2 190 -1 l139 2 -4 43 -3 42 -110 5 -110 5 -3 38 -3 37 75 0 76 0 0 50 0 50
-76 0 -75 0 3 38 3 37 110 2 110 2 3 45 3 46 -164 0 c-90 0 -167 -3 -170 -7z"/>
<path d="M3060 1555 l0 -225 140 0 140 0 0 50 0 50 -85 0 -85 0 0 175 0 175
-55 0 -55 0 0 -225z"/>
<path d="M3417 1773 c-4 -3 -7 -102 -7 -220 l0 -213 170 0 170 0 0 45 0 45
-110 0 c-81 0 -110 3 -111 13 -1 6 -2 24 -3 40 l-2 27 73 0 73 0 0 50 0 50
-72 0 -73 0 1 37 1 38 112 3 111 3 0 44 0 45 -163 0 c-90 0 -167 -3 -170 -7z"/>
<path d="M3900 1773 c0 -4 33 -105 72 -225 l73 -218 55 0 55 0 73 218 c39 119
72 220 72 225 0 4 -24 7 -54 7 l-55 0 -36 -117 c-20 -65 -39 -126 -41 -135 -3
-10 -8 -18 -12 -18 -4 0 -25 60 -47 133 l-40 132 -57 3 c-32 2 -58 0 -58 -5z"/>
<path d="M4372 1578 c-109 -278 -104 -248 -37 -248 55 0 56 1 71 35 l14 35 84
0 84 0 12 -35 c11 -34 13 -35 66 -35 45 0 54 3 54 18 0 9 -36 109 -79 222
l-79 205 -55 3 -55 3 -80 -203z m157 -10 c12 -34 21 -66 21 -70 0 -4 -20 -8
-45 -8 -56 0 -56 1 -10 128 8 21 13 14 34 -50z"/>
<path d="M4795 1768 c-3 -7 -4 -108 -3 -223 l3 -210 53 -3 52 -3 0 70 0 71 34
0 c33 0 36 -3 67 -70 l32 -70 58 0 c36 0 59 4 59 11 0 6 -17 43 -37 81 -35 67
-36 71 -18 84 56 41 73 139 35 201 -33 54 -70 67 -207 71 -98 3 -124 1 -128
-10z m229 -101 c24 -18 24 -67 0 -84 -12 -9 -38 -13 -69 -11 l-50 3 -3 53 -3
52 54 0 c29 0 61 -6 71 -13z"/>
<path d="M5230 1555 l0 -225 163 2 162 3 3 48 3 47 -110 0 -111 0 0 40 0 40
70 0 70 0 0 50 0 50 -70 0 -70 0 0 35 0 34 108 3 107 3 3 48 3 47 -165 0 -166
0 0 -225z"/>
</g>
</svg>
